HIERARCHY
ROOT Hips
{
	OFFSET 0.00000 0.00000 0.00000
	CHANNELS 6 Xposition Yposition Zposition Zrotation Yrotation Xrotation 
	JOINT LHipJoint
	{
		OFFSET 0 0 0
		CHANNELS 3 Zrotation Yrotation Xrotation
		JOINT LeftUpLeg
		{
			OFFSET 1.62329 -1.80800 0.67318
			CHANNELS 3 Zrotation Yrotation Xrotation
			JOINT LeftLeg
			{
				OFFSET 2.57139 -7.06484 0.00000
				CHANNELS 3 Zrotation Yrotation Xrotation
				JOINT LeftFoot
				{
					OFFSET 2.52017 -6.92413 0.00000
					CHANNELS 3 Zrotation Yrotation Xrotation
					JOINT LeftToeBase
					{
						OFFSET 0.23295 -0.64001 2.10214
						CHANNELS 3 Zrotation Yrotation Xrotation
						End Site
						{
							OFFSET 0.00000 -0.00000 1.10139
						}
					}
				}
			}
		}
	}
	JOINT RHipJoint
	{
		OFFSET 0 0 0
		CHANNELS 3 Zrotation Yrotation Xrotation
		JOINT RightUpLeg
		{
			OFFSET -1.48061 -1.80800 0.67318
			CHANNELS 3 Zrotation Yrotation Xrotation
			JOINT RightLeg
			{
				OFFSET -2.63258 -7.23296 0.00000
				CHANNELS 3 Zrotation Yrotation Xrotation
				JOINT RightFoot
				{
					OFFSET -2.54779 -7.00000 0.00000
					CHANNELS 3 Zrotation Yrotation Xrotation
					JOINT RightToeBase
					{
						OFFSET -0.23067 -0.63376 2.12161
						CHANNELS 3 Zrotation Yrotation Xrotation
						End Site
						{
							OFFSET -0.00000 -0.00000 1.11000
						}
					}
				}
			}
		}
	}
	JOINT LowerBack
	{
		OFFSET 0 0 0
		CHANNELS 3 Zrotation Yrotation Xrotation
		JOINT Spine
		{
			OFFSET -0.02108 2.07573 -0.16981
			CHANNELS 3 Zrotation Yrotation Xrotation
			JOINT Spine1
			{
				OFFSET 0.05070 2.08439 -0.03141
				CHANNELS 3 Zrotation Yrotation Xrotation
				JOINT Neck
				{
					OFFSET 0 0 0
					CHANNELS 3 Zrotation Yrotation Xrotation
					JOINT Neck1
					{
						OFFSET -0.10731 1.60408 0.31370
						CHANNELS 3 Zrotation Yrotation Xrotation
						JOINT Head
						{
							OFFSET 0.08411 1.65679 -0.30822
							CHANNELS 3 Zrotation Yrotation Xrotation
							End Site
							{
								OFFSET 0.03911 1.69149 -0.14146
							}
						}
					}
				}
				JOINT LeftShoulder
				{
					OFFSET 0 0 0
					CHANNELS 3 Zrotation Yrotation Xrotation
					JOINT LeftArm
					{
						OFFSET 3.52315 0.73219 -0.54694
						CHANNELS 3 Zrotation Yrotation Xrotation
						JOINT LeftForeArm
						{
							OFFSET 5.32462 -0.00000 -0.00000
							CHANNELS 3 Zrotation Yrotation Xrotation
							JOINT LeftHand
							{
								OFFSET 3.48402 -0.00000 -0.00000
								CHANNELS 3 Zrotation Yrotation Xrotation
								JOINT LeftFingerBase
								{
									OFFSET 0 0 0
									CHANNELS 3 Zrotation Yrotation Xrotation
									JOINT LeftHandIndex1
									{
										OFFSET 0.57248 -0.00000 -0.00000
										CHANNELS 3 Zrotation Yrotation Xrotation
										End Site
										{
											OFFSET 0.46154 -0.00000 -0.00000
										}
									}
								}
								JOINT LThumb
								{
									OFFSET 0 0 0
									CHANNELS 3 Zrotation Yrotation Xrotation
									End Site
									{
										OFFSET 0.46859 -0.00000 0.46859
									}
								}
							}
						}
					}
				}
				JOINT RightShoulder
				{
					OFFSET 0 0 0
					CHANNELS 3 Zrotation Yrotation Xrotation
					JOINT RightArm
					{
						OFFSET -3.41766 0.93592 -0.10019
						CHANNELS 3 Zrotation Yrotation Xrotation
						JOINT RightForeArm
						{
							OFFSET -5.33589 -0.00000 -0.00000
							CHANNELS 3 Zrotation Yrotation Xrotation
							JOINT RightHand
							{
								OFFSET -3.64134 -0.00000 -0.00000
								CHANNELS 3 Zrotation Yrotation Xrotation
								JOINT RightFingerBase
								{
									OFFSET 0 0 0
									CHANNELS 3 Zrotation Yrotation Xrotation
									JOINT RightHandIndex1
									{
										OFFSET -0.73481 -0.00000 -0.00000
										CHANNELS 3 Zrotation Yrotation Xrotation
										End Site
										{
											OFFSET -0.59242 -0.00000 -0.00000
										}
									}
								}
								JOINT RThumb
								{
									OFFSET 0 0 0
									CHANNELS 3 Zrotation Yrotation Xrotation
									End Site
									{
										OFFSET -0.60147 -0.00000 0.60147
									}
								}
							}
						}
					}
				}
			}
		}
	}
}
MOTION
Frames: 15
Frame Time: .0083333
-4.6151 18.0382 -5.7097 0 0 0 0 0 0 -21 0 0 0 0 0 0 0 0 0 0 0 0 0 0 21 0 0 0 0 0 0 0 0 0 0 0 0 0 0 0 0 0 0 0 0 0 0 -16 0 0 21 0 0 11 0 0 0 -8 0 0 0 0 0 0 0 0 0 0 0 0 0 0 0 0 0 0 0 0 8 0 0 0 0 0 0 0 0 0 0 0 0 0 0 0 0 0
-4.6151 18.0382 -5.7097 24.1451 -47.5348 -2.5335 0.0000 0.0000 0.0000 -24.1350 -8.8731 -19.5870 0.6329 5.0902 14.1659 0.1303 -4.5232 9.9681 0.2349 -3.1191 -8.6104 0.0000 0.0000 0.0000 1.1531 8.4085 -33.5441 -3.9853 -12.1408 36.2318 -1.1836 1.1299 -20.2258 -0.8692 -5.9446 16.6237 4.4180 1.4313 11.6975 10.2660 2.2183 5.5135 8.1310 0.9240 -0.9863 -13.2731 -12.8835 -5.2371 3.6261 -18.3268 30.8630 1.0947 -9.2528 12.7444 -0.0000 0.0000 0.0000 -83.2535 -4.7879 69.9351 65.6481 -57.6362 -39.0780 -0.0000 0.0000 -61.8807 31.0335 38.8630 20.6823 -7.1250 0.0000 -0.0000 -6.8307 73.1244 -4.5594 -0.0000 0.0000 0.0000 80.7459 33.5991 13.0830 -21.2242 32.0891 -6.1686 0.0000 -0.0000 -22.4316 -16.5628 -19.3584 5.6302 7.1250 -0.0000 -0.0000 11.5974 -49.7536 -1.3756
-4.6213 18.0385 -5.7098 24.0395 -47.4715 -2.5414 0.0000 0.0000 0.0000 -24.1439 -8.8151 -19.5669 0.6494 5.1547 14.3504 0.1166 -4.6103 9.7596 0.2448 -3.1837 -8.7907 0.0000 0.0000 0.0000 1.1894 8.5701 -33.3451 -3.9891 -12.1459 36.2500 -1.2060 1.1356 -20.4188 -0.9248 -6.1265 17.1518 4.7481 1.6277 11.7992 10.2385 2.5040 5.6221 7.8709 1.0689 -0.9416 -12.9638 -13.1108 -5.3683 3.5870 -18.6803 30.9345 0.9680 -9.3655 12.7940 -0.0000 -0.0000 0.0000 -82.9088 -4.3906 69.5770 66.6292 -57.8321 -39.9076 -0.0000 0.0000 -64.8789 32.7041 38.9038 21.9613 -7.1250 0.0000 -0.0000 -4.1544 73.7471 -2.8269 -0.0000 -0.0000 0.0000 81.4464 34.1294 14.8814 -21.0013 31.8298 -6.0506 0.0000 -0.0000 -22.2229 -13.9830 -19.7106 4.8007 7.1250 -0.0000 -0.0000 14.1841 -49.7076 -1.6763
-4.6282 18.0385 -5.7165 24.0021 -47.4288 -2.6001 0.0000 0.0000 0.0000 -24.2279 -8.4937 -19.5250 0.6442 5.1345 14.2927 0.1030 -4.9325 9.7902 0.2633 -3.3013 -9.1188 0.0000 0.0000 0.0000 1.1981 8.7532 -33.2046 -4.0135 -12.1784 36.3659 -1.2347 1.1396 -20.6645 -0.9331 -6.1532 17.2295 4.9071 1.8168 11.9714 10.2307 2.7738 5.7158 7.7327 1.2039 -0.9554 -12.6984 -13.3391 -5.4560 3.5376 -19.0255 30.9521 0.8497 -9.4826 12.8145 -0.0000 -0.0000 0.0000 -82.6928 -3.9396 68.9342 67.4479 -57.9882 -40.6012 -0.0000 0.0000 -66.9124 34.0095 39.4937 23.2260 -7.1250 0.0000 -0.0000 -2.5896 74.8006 -1.8203 -0.0000 -0.0000 0.0000 82.2221 34.7064 16.5510 -20.7264 31.5076 -5.9063 0.0000 -0.0000 -21.8590 -11.4543 -19.9541 3.9556 7.1250 -0.0000 -0.0000 16.6670 -49.5620 -1.9225
-4.6332 18.0353 -5.7225 24.1698 -47.2888 -2.6437 0.0000 0.0000 0.0000 -24.4200 -8.3926 -19.6347 0.6411 5.1225 14.2582 0.1008 -5.1006 9.9205 0.2639 -3.3047 -9.1283 0.0000 0.0000 0.0000 1.0311 8.7407 -33.2989 -4.0344 -12.2061 36.4649 -1.2496 1.1327 -20.7941 -0.9310 -6.1465 17.2102 4.8582 1.9624 11.9958 10.2269 2.9634 5.7315 7.7303 1.2986 -0.9738 -12.5141 -13.4862 -5.3667 3.6478 -19.2850 30.7740 0.8352 -9.5634 12.7375 -0.0000 0.0000 0.0000 -82.6774 -3.4291 68.1467 67.9447 -58.0798 -41.0227 -0.0000 0.0000 -68.1795 35.2228 39.9916 24.4057 -7.1250 0.0000 -0.0000 -0.9466 75.7371 -0.6843 -0.0000 0.0000 0.0000 82.9792 35.2261 18.1814 -20.4696 31.2039 -5.7727 0.0000 -0.0000 -21.4793 -9.3702 -19.9232 3.2184 7.1250 -0.0000 -0.0000 18.6001 -49.2221 -1.9992
-4.6383 18.0308 -5.7211 24.2516 -47.1524 -2.6239 0.0000 0.0000 0.0000 -24.4748 -8.7410 -19.5630 0.6369 5.1061 14.2114 0.1170 -4.6436 9.8003 0.2239 -3.0457 -8.4059 0.0000 0.0000 0.0000 0.8811 8.8200 -33.3455 -4.0539 -12.2318 36.5569 -1.2738 1.1468 -20.9942 -0.9594 -6.2370 17.4735 4.9026 2.0903 11.9194 10.2452 3.1226 5.7767 7.7059 1.3783 -0.8987 -12.3927 -13.6254 -5.3105 3.8063 -19.5396 30.6398 0.8427 -9.6416 12.6992 -0.0000 0.0000 0.0000 -82.7268 -2.9719 67.3609 68.2476 -58.1344 -41.2799 -0.0000 0.0000 -69.0561 36.4182 40.4546 25.5799 -7.1250 0.0000 -0.0000 0.8576 76.6375 0.6362 -0.0000 0.0000 0.0000 83.5472 35.5683 19.8872 -20.3879 31.1069 -5.7304 0.0000 -0.0000 -21.3878 -8.1815 -19.7766 2.7850 7.1250 -0.0000 -0.0000 19.6366 -48.9096 -1.9626
-4.6445 18.0274 -5.7176 24.2182 -47.0008 -2.5509 0.0000 0.0000 0.0000 -24.4974 -8.9874 -19.5032 0.6346 5.0971 14.1858 0.1205 -4.4319 9.6681 0.2418 -3.1642 -8.7363 0.0000 0.0000 0.0000 0.8425 8.8778 -33.3291 -4.0687 -12.2513 36.6270 -1.2946 1.0994 -21.1825 -0.9403 -6.1762 17.2966 5.0466 2.1924 11.8536 10.2651 3.2563 5.8307 7.6301 1.4460 -0.8110 -12.1954 -13.7783 -5.4601 3.7520 -19.7694 30.7419 0.7436 -9.7146 12.7621 -0.0000 -0.0000 0.0000 -82.7613 -2.5671 66.5680 68.5743 -58.1923 -41.5574 -0.0000 0.0000 -69.9955 37.7560 40.7968 26.8399 -7.1250 0.0000 -0.0000 3.3075 77.4704 2.5117 -0.0000 -0.0000 0.0000 84.1200 35.9068 21.4580 -20.3110 31.0153 -5.6908 0.0000 -0.0000 -21.4350 -7.5503 -19.5921 2.5449 7.1250 -0.0000 -0.0000 20.1364 -48.6450 -1.8807
-4.6514 18.0272 -5.7150 24.2022 -46.8588 -2.4476 0.0000 0.0000 0.0000 -24.5523 -9.1552 -19.5672 0.6419 5.1257 14.2673 0.1155 -4.4018 9.5264 0.2721 -3.3551 -9.2690 0.0000 0.0000 0.0000 0.7932 8.9093 -33.3504 -4.0726 -12.2564 36.6451 -1.3047 0.9827 -21.2999 -0.9279 -6.1365 17.1811 5.1617 2.2817 11.7998 10.2757 3.3811 5.8212 7.5603 1.5102 -0.7973 -12.0698 -13.9089 -5.4584 3.7085 -19.9705 30.7842 0.6771 -9.7887 12.7772 -0.0000 0.0000 0.0000 -82.7861 -2.1687 65.7990 68.7932 -58.2306 -41.7435 -0.0000 0.0000 -70.9526 38.7160 41.0511 27.7642 -7.1250 0.0000 -0.0000 5.2232 78.0770 4.0333 -0.0000 0.0000 0.0000 84.7667 36.2730 22.8356 -20.1354 30.8051 -5.6005 0.0000 -0.0000 -21.3817 -7.3104 -19.4872 2.4506 7.1250 -0.0000 -0.0000 20.3104 -48.5124 -1.8295
-4.6576 18.0268 -5.7156 24.2132 -46.7355 -2.3714 0.0000 0.0000 0.0000 -24.6312 -9.2276 -19.7101 0.6573 5.1854 14.4382 0.1194 -4.1905 9.4106 0.2314 -3.0964 -8.5472 0.0000 0.0000 0.0000 0.7328 8.9779 -33.3564 -4.0680 -12.2503 36.6232 -1.3042 0.7827 -21.3549 -0.8957 -6.0321 16.8776 5.1898 2.3892 11.8269 10.3201 3.5358 5.7762 7.5708 1.5879 -0.8756 -12.0857 -14.0628 -5.1757 3.8424 -20.2353 30.5672 0.7137 -9.8991 12.6752 0.0000 0.0000 0.0000 -82.8842 -1.7740 65.1505 68.7593 -58.2247 -41.7147 -0.0000 0.0000 -71.8161 39.5606 40.8729 28.3955 -7.1250 0.0000 -0.0000 7.4458 78.1957 5.7705 0.0000 0.0000 0.0000 85.1515 36.5455 24.1428 -19.9829 30.6217 -5.5226 0.0000 -0.0000 -21.3277 -7.1840 -19.6557 2.4278 7.1250 -0.0000 -0.0000 20.5003 -48.6525 -1.9213
-4.6632 18.0286 -5.7158 24.2014 -46.6373 -2.3862 0.0000 0.0000 0.0000 -24.7329 -9.1646 -19.7714 0.6746 5.2519 14.6284 0.1229 -4.0161 9.3228 0.2145 -2.9814 -8.2270 0.0000 0.0000 0.0000 0.7287 9.0200 -33.2366 -4.0588 -12.2382 36.5799 -1.3034 0.6594 -21.3861 -0.8678 -5.9397 16.6097 5.2294 2.5171 11.9677 10.3728 3.7221 5.7899 7.5773 1.6798 -0.9562 -12.1706 -14.2121 -4.9243 4.1870 -20.5362 30.3107 0.8256 -10.0077 12.6041 -0.0000 -0.0000 0.0000 -83.0709 -1.4330 64.4766 68.6872 -58.2121 -41.6534 -0.0000 0.0000 -72.5800 39.0755 41.5862 28.3220 -7.1250 0.0000 -0.0000 5.4874 78.7543 4.3139 -0.0000 -0.0000 0.0000 85.3440 36.8595 25.3350 -19.8465 30.4570 -5.4533 0.0000 -0.0000 -21.2199 -7.2418 -19.7477 2.4585 7.1250 -0.0000 -0.0000 20.4881 -48.7470 -1.9695
-4.6693 18.0335 -5.7128 24.1949 -46.5803 -2.4650 0.0000 0.0000 0.0000 -24.8475 -9.0729 -19.7561 0.6910 5.3143 14.8073 0.1125 -4.1062 9.1723 0.3069 -3.5616 -9.8463 0.0000 0.0000 0.0000 0.7322 9.0615 -33.0305 -4.0459 -12.2212 36.5190 -1.3110 0.6427 -21.4543 -0.8896 -6.0120 16.8192 5.3001 2.6599 12.1430 10.3874 3.9318 5.8246 7.5191 1.7840 -1.0308 -12.1245 -14.3568 -4.7940 4.4233 -20.8139 30.1461 0.8729 -10.1001 12.5628 -0.0000 -0.0000 0.0000 -83.1976 -1.1432 63.8394 68.7144 -58.2169 -41.6765 -0.0000 0.0000 -73.2422 36.0608 44.9135 27.2083 -7.1250 0.0000 -0.0000 -8.3149 80.8558 -6.8935 -0.0000 -0.0000 0.0000 85.5923 37.2415 26.2518 -19.6533 30.2224 -5.3557 0.0000 -0.0000 -20.8811 -7.6070 -19.9102 2.6041 7.1250 -0.0000 -0.0000 20.2248 -48.9522 -2.0478
-4.6757 18.0358 -5.7126 24.2563 -46.5445 -2.5347 0.0000 0.0000 0.0000 -24.9521 -9.0519 -19.7874 0.7037 5.3617 14.9432 0.1137 -3.9621 9.0614 0.3076 -3.5659 -9.8585 0.0000 0.0000 0.0000 0.6778 9.1226 -32.9002 -4.0303 -12.2006 36.4452 -1.3150 0.6537 -21.4840 -0.9197 -6.1102 17.1045 5.2727 2.8274 12.2761 10.3796 4.1609 5.8580 7.4897 1.8976 -1.0912 -12.0441 -14.5469 -4.7585 4.5648 -21.1310 30.0448 0.8650 -10.2116 12.5541 0.0000 0.0000 0.0000 -83.2194 -1.0053 63.4780 68.7020 -58.2147 -41.6659 -0.0000 0.0000 -73.6587 36.2888 45.2468 27.5393 -7.1250 0.0000 -0.0000 -8.7434 81.2573 -7.3191 0.0000 0.0000 0.0000 85.8747 37.6288 26.9858 -19.4732 30.0024 -5.2654 0.0000 -0.0000 -20.4255 -8.0112 -20.1286 2.7728 7.1250 -0.0000 -0.0000 19.9494 -49.2166 -2.1519
-4.6817 18.0370 -5.7108 24.2422 -46.4632 -2.5055 0.0000 0.0000 0.0000 -24.9945 -9.0948 -19.8127 0.7111 5.3894 15.0227 0.1211 -3.6924 8.9850 0.2516 -3.2277 -8.9134 0.0000 0.0000 0.0000 0.6655 9.1780 -32.8105 -4.0132 -12.1779 36.3642 -1.3089 0.5764 -21.4568 -0.8799 -5.9800 16.7263 5.2966 2.9349 12.3511 10.3945 4.3102 5.8829 7.4691 1.9718 -1.1188 -12.0358 -14.6910 -4.8110 4.6613 -21.3622 30.0382 0.8535 -10.2936 12.5971 0.0000 -0.0000 0.0000 -83.2487 -0.9387 63.2378 68.6519 -58.2059 -41.6234 -0.0000 0.0000 -73.9310 36.6353 45.1755 27.8084 -7.1250 0.0000 -0.0000 -7.6800 81.3345 -6.4394 0.0000 -0.0000 0.0000 86.0342 37.8665 27.8839 -19.4294 29.9487 -5.2435 0.0000 -0.0000 -20.1145 -8.1287 -20.2453 2.8296 7.1250 -0.0000 -0.0000 19.8929 -49.3440 -2.2097
-4.6859 18.0403 -5.7048 24.1783 -46.3916 -2.4912 0.0000 0.0000 0.0000 -25.0219 -9.1484 -19.7468 0.7170 5.4111 15.0848 0.1224 -3.5411 8.8804 0.2481 -3.2052 -8.8505 0.0000 0.0000 0.0000 0.6911 9.1760 -32.6628 -3.9952 -12.1540 36.2789 -1.3070 0.6032 -21.4327 -0.8830 -5.9902 16.7561 5.3993 2.9927 12.4538 10.4005 4.4079 5.8841 7.3993 2.0210 -1.1747 -12.0379 -14.7390 -4.7986 4.7636 -21.4670 30.0610 0.8719 -10.3253 12.6291 -0.0000 -0.0000 0.0000 -83.2720 -0.7736 63.0137 68.6591 -58.2072 -41.6295 -0.0000 0.0000 -74.0184 37.1476 45.0230 28.1877 -7.1250 0.0000 -0.0000 -5.9423 81.4021 -4.9891 -0.0000 -0.0000 0.0000 86.1461 37.9251 28.7907 -19.4576 29.9833 -5.2576 0.0000 -0.0000 -19.9394 -8.2267 -20.3194 2.8741 7.1250 -0.0000 -0.0000 19.8355 -49.4282 -2.2453
-4.6884 18.0433 -5.7007 24.0371 -46.3384 -2.3510 0.0000 0.0000 0.0000 -24.9578 -9.2476 -19.7950 0.7267 5.4469 15.1879 0.1239 -3.4066 8.7977 0.2376 -3.1370 -8.6604 0.0000 0.0000 0.0000 0.7638 9.1796 -32.5874 -3.9724 -12.1236 36.1708 -1.3064 0.6189 -21.4230 -0.9188 -6.1072 17.0957 5.5263 3.0146 12.4486 10.4113 4.4427 5.9221 7.3354 2.0388 -1.1249 -11.9935 -14.8040 -4.8578 4.8116 -21.5675 30.0259 0.8617 -10.3552 12.6371 -0.0000 -0.0000 0.0000 -83.3042 -0.7328 62.7872 68.5957 -58.1961 -41.5756 -0.0000 0.0000 -74.0125 37.5760 44.9628 28.5338 -7.1250 0.0000 -0.0000 -4.6513 81.5195 -3.9154 -0.0000 -0.0000 0.0000 86.4269 38.2886 29.3579 -19.2997 29.7893 -5.1789 0.0000 -0.0000 -19.5728 -8.5003 -20.3823 2.9797 7.1250 -0.0000 -0.0000 19.6100 -49.5284 -2.2677
